<svg width="34" height="24" viewBox="0 0 34 24" fill="none" xmlns="http://www.w3.org/2000/svg">
<path d="M0 4C0 1.79086 1.79086 0 4 0H30C32.2091 0 34 1.79086 34 4V20C34 22.2091 32.2091 24 30 24H4C1.79086 24 0 22.2091 0 20V4Z" fill="white"/>
<path d="M4 1H30V-1H4V1ZM33 4V20H35V4H33ZM30 23H4V25H30V23ZM1 20V4H-1V20H1ZM4 23C2.34315 23 1 21.6569 1 20H-1C-1 22.7614 1.23858 25 4 25V23ZM33 20C33 21.6569 31.6569 23 30 23V25C32.7614 25 35 22.7614 35 20H33ZM30 1C31.6569 1 33 2.34315 33 4H35C35 1.23858 32.7614 -1 30 -1V1ZM4 -1C1.23858 -1 -1 1.23858 -1 4H1C1 2.34315 2.34315 1 4 1V-1Z" fill="#EAEAEA"/>
<path d="M21.9818 11.9542C22.5131 11.9658 23.0473 11.9308 23.5765 11.9724C24.1123 12.0724 24.2415 12.8836 23.7654 13.1493C23.4406 13.3243 23.0547 13.2145 22.7025 13.2454H21.9818V11.9542ZM23.8837 10.4928C24.0017 10.9095 23.6001 11.2835 23.1988 11.2262H21.9818C21.9903 10.8333 21.9651 10.4068 21.9942 10.0346C22.4817 10.0484 22.9737 10.0066 23.4585 10.0564C23.6667 10.1088 23.841 10.28 23.8837 10.4928ZM26.8126 4.31448C26.8352 5.11012 26.8158 5.94781 26.8223 6.75959C26.8208 10.06 26.8255 13.3603 26.8198 16.6609C26.7984 17.8978 25.7022 18.9726 24.4739 18.9972C23.2443 19.0022 22.0146 18.998 20.7849 18.9994V14.0099C22.1247 14.003 23.4652 14.0239 24.8045 13.9994C25.4258 13.9604 26.1063 13.5505 26.1352 12.8668C26.2084 12.1801 25.561 11.7051 24.9463 11.6301C24.7101 11.624 24.717 11.5613 24.9463 11.5339C25.5326 11.4072 25.9929 10.8004 25.8204 10.1928C25.6735 9.55368 24.9671 9.30631 24.3795 9.30754C23.1815 9.2994 21.9832 9.30641 20.7852 9.30404C20.7929 8.37256 20.769 7.44008 20.798 6.50928C20.893 5.2947 22.0167 4.29307 23.2278 4.3148C24.4229 4.31462 25.6178 4.31462 26.8126 4.31457V4.31448Z" fill="url(#paint0_linear_69_48928)"/>
<path d="M7.24647 6.63505C7.27706 5.40011 8.37794 4.33415 9.6047 4.3161C10.8297 4.31233 12.0549 4.31556 13.2798 4.31446C13.2765 8.44633 13.2865 12.5786 13.2748 16.7103C13.2276 17.9302 12.1387 18.9759 10.9253 18.9975C9.69803 19.0019 8.47059 18.9981 7.24324 18.9993V13.8416C8.4354 14.1232 9.68558 14.2431 10.9018 14.0563C11.6288 13.9393 12.4242 13.5823 12.6703 12.8281C12.8515 12.1829 12.7495 11.504 12.7764 10.8418V9.30402H10.6717C10.6622 10.3211 10.691 11.3399 10.6564 12.3557C10.5997 12.9801 9.98136 13.3768 9.39248 13.3556C8.66217 13.3633 7.21496 12.8263 7.21496 12.8263C7.21132 10.9208 7.23615 8.53443 7.24647 6.63524V6.63505Z" fill="url(#paint1_linear_69_48928)"/>
<path d="M14.0649 9.92427C13.9541 9.94778 14.0426 9.54689 14.0143 9.39482C14.0218 8.43328 13.9985 7.4707 14.0271 6.50985C14.1218 5.29014 15.2542 4.28601 16.4702 4.31456H20.0512C20.0478 8.44642 20.0578 12.5787 20.0461 16.7104C19.9989 17.9303 18.9099 18.9759 17.6965 18.9976C16.4691 19.0022 15.2417 18.9983 14.0142 18.9995V13.3485C14.8525 14.0363 15.9918 14.1433 17.0362 14.1452C17.8235 14.1449 18.6062 14.0235 19.3708 13.842V12.8067C18.5092 13.2361 17.4963 13.5089 16.5411 13.2622C15.8748 13.0963 15.3911 12.4524 15.4019 11.7648C15.3247 11.0497 15.7439 10.2947 16.4466 10.0822C17.3191 9.80903 18.27 10.0179 19.0878 10.373C19.263 10.4648 19.4408 10.5786 19.3708 10.2857V9.47197C18.003 9.14654 16.5474 9.0268 15.1732 9.38081C14.7755 9.49301 14.388 9.66318 14.0649 9.92436V9.92427Z" fill="url(#paint2_linear_69_48928)"/>
<defs>
<linearGradient id="paint0_linear_69_48928" x1="20.7437" y1="11.343" x2="26.7843" y2="11.343" gradientUnits="userSpaceOnUse">
<stop stop-color="#58B03A"/>
<stop offset="1" stop-color="#55B330"/>
</linearGradient>
<linearGradient id="paint1_linear_69_48928" x1="7.1148" y1="11.7975" x2="13.1809" y2="11.7975" gradientUnits="userSpaceOnUse">
<stop stop-color="#0F6EB6"/>
<stop offset="1" stop-color="#006DBA"/>
</linearGradient>
<linearGradient id="paint2_linear_69_48928" x1="14.0054" y1="11.4853" x2="20.05" y2="11.4853" gradientUnits="userSpaceOnUse">
<stop stop-color="#DE0D3D"/>
<stop offset="1" stop-color="#E30138"/>
</linearGradient>
</defs>
</svg>
